# xmcd
#
# Track frame offsets: 
#        300
#        8242
#        23420
#        40720
#        58212
#        71492
#        93512
#        109662
#        124677
#        137475
#        150510
#        166522
#        179775
#        195042
#        206722
#        219700
#        239777
#        254820
#        270880
#        279716
#
# Disc length: 3939 seconds
#
# Revision: 0
# Processed by: cddbd v1.5.2PL0 Copyright (c) Steve Scherf et al.
# Submitted via: ExactAudioCopy v0.99pb4
#
DISCID=1c0f5f14
DTITLE=Willie Nelson - Revolutions of Time...The Journey 1975-1993 - E
DTITLE=xodus
DYEAR=1995
DGENRE=Country
TTITLE0=Nobody Slides, My Friend
TTITLE1=Little Old Fashioned Karma
TTITLE2=Harbor Lights
TTITLE3=Without A Song
TTITLE4=Good Time Charlie's Got The Blues
TTITLE5=City Of New Orleans
TTITLE6=Who'll Buy My Memories
TTITLE7=Write Your Own Songs
TTITLE8=Forgiving You Was Easy
TTITLE9=Me And Paul
TTITLE10=When I Dream
TTITLE11=My Own Peculiar Way
TTITLE12=Living In The Promiseland
TTITLE13=There Is No Easy Way (But There Is A Way)
TTITLE14=Ole Buttermilk Sky
TTITLE15=A Horse Called Music
TTITLE16=Nothing I Can Do About It Now
TTITLE17=Is The Better Part Over
TTITLE18=Ain't Necessarily So
TTITLE19=Still Is Still Moving To Me
EXTD=
EXTT0=
EXTT1=
EXTT2=
EXTT3=
EXTT4=
EXTT5=
EXTT6=
EXTT7=
EXTT8=
EXTT9=
EXTT10=
EXTT11=
EXTT12=
EXTT13=
EXTT14=
EXTT15=
EXTT16=
EXTT17=
EXTT18=
EXTT19=
PLAYORDER=
